inDegrees=yes
name=ik_S53_A09_T01
DataType=double
version=3
OpenSimVersion=4.3-2021-08-27-4bc7ad9
endheader
time	pelvis_tilt	pelvis_list	pelvis_rotation	pelvis_tx	pelvis_ty	pelvis_tz	hip_flexion_r	hip_adduction_r	hip_rotation_r	knee_angle_r	knee_angle_r_beta	ankle_angle_r	subtalar_angle_r	mtp_angle_r	hip_flexion_l	hip_adduction_l	hip_rotation_l	knee_angle_l	knee_angle_l_beta	ankle_angle_l	subtalar_angle_l	mtp_angle_l	lumbar_extension	lumbar_bending	lumbar_rotation	arm_flex_r	arm_add_r	arm_rot_r	elbow_flex_r	pro_sup_r	wrist_flex_r	wrist_dev_r	arm_flex_l	arm_add_l	arm_rot_l	elbow_flex_l	pro_sup_l	wrist_flex_l	wrist_dev_l
0	0	0	0	0	0.9399999999999999	0	0	0	0	0	0	0	0	0	0	0	0	0	0	0	0	0	0	0	0	0	0	0	0	89.99999999963507	0	0	0	0	0	0	89.99999999869995	0	0
0.02	-5.213204048950582	-0.772477424763376	20.51012052792877	0	0.9399999999999999	0	3.681334990887493	-1.720347355038043	-1.239944772911428	5.719829928953795	0.09982986491435705	0	0	0	3.681334990887493	-1.720347355038043	-1.239944772911428	5.719829928953795	0.09982986491435705	0	0	0	-3.294425250826587	-2.206022660471175	1.380704168153457	15.93978895558107	0.53178374035892	6.2181499269973	50.78811575243659	133.6329031229627	0	0	19.29214206927741	-6.009734330475485	0.9595895981534287	45.72872088415214	131.6853080848977	0	0
0.04	-5.836493241716053	-1.518001733353328	20.94271798598966	0	0.9399999999999999	0	43.0764929079455	-11.76214223972427	-11.2096845944572	53.99426612853364	0.9423777211409637	0	0	0	43.0764929079455	-11.76214223972427	-11.2096845944572	53.99426612853364	0.9423777211409637	0	0	0	-2.43674759932633	-1.660177053457911	0.9404612000299308	15.91691413262288	0.4870164896465478	6.256515413256793	50.89550261101879	133.5807689477016	0	0	19.26108918084276	-6.001033691208274	0.9581082687820308	45.72043787174891	131.6680686076839	0	0
0.06	-5.836746259984021	-1.499284939332959	20.90926826957136	0	0.9399999999999999	0	43.07683194682558	-11.7610618978705	-11.20920864954928	53.99438542499706	0.9423798032570364	0	0	0	43.07683194682558	-11.7610618978705	-11.20920864954928	53.99438542499706	0.9423798032570364	0	0	0	-2.430580205343665	-1.642646750092553	0.9467825954999842	16.01116836788836	0.5272529708001016	6.141278725694725	50.79727251629749	133.650641872399	0	0	19.23988485328648	-5.982036756536673	0.923252039540826	45.70300326917464	131.6920612178975	0	0
0.08	-5.834465656846077	-1.49078142807567	20.88822790306525	0	0.9399999999999999	0	43.07976704726327	-11.75149622743703	-11.20504435954467	53.99540986835654	0.9423976831666596	-1.264309097762453e-35	0	0	43.07976704726327	-11.75149622743703	-11.20504435954467	53.99540986835654	0.9423976831666596	-1.264309097762453e-35	0	0	-2.429205503457001	-1.632987617522168	0.9439451111525262	16.03995165062194	0.5212083646586598	6.172218485514061	50.87251594600426	133.6236108397947	0	2.96390672977391e-37	19.20946515007432	-6.024127403462784	0.9554867593654053	45.71830148971545	131.6574955035304	0	2.96390672977391e-37
0.1	-5.833077357207356	-1.484186940498316	20.87648880872344	0	0.9399999999999999	0	43.07773050321013	-11.75707826476382	-11.20770533991425	53.99468547912875	0.9423850401895686	0	0	0	43.07773050321013	-11.75707826476382	-11.20770533991425	53.99468547912875	0.9423850401895686	0	0	0	-2.422811068791215	-1.629286113543636	0.9486185063294635	16.04321309716524	0.6400589394648563	6.119682733359207	50.8364666041934	133.7118027284624	0	0	19.19923685460914	-6.0112146538446	0.944622988809264	45.67980768264967	131.7068948276446	0	0
0.12	-5.840084193958902	-1.47331928243341	20.82852783259776	0	0.9399999999999999	0	43.07811491607546	-11.75587235480799	-11.20717092654307	53.99482239832397	0.9423874298803344	0	0	0	43.07811491607546	-11.75587235480799	-11.20717092654307	53.99482239832397	0.9423874298803344	0	0	0	-2.426039681954835	-1.616168729661454	0.9464766044687433	16.08003755478669	0.6888852311096174	6.097522407680093	51.03709551326808	133.9906718449292	0	0	19.21072763925634	-6.018155536470082	0.8916884709967758	45.67917508000208	131.7040546536003	0	0
0.14	-5.833976834803592	-1.473837472541021	20.81719869684735	0	0.9399999999999999	0	43.0786311824606	-11.75422393753644	-11.20644477762681	53.99500326439762	0.9423905865888247	0	0	0	43.0786311824606	-11.75422393753644	-11.20644477762681	53.99500326439762	0.9423905865888247	0	0	0	-2.420502167612681	-1.619871630728742	0.9749734328887314	16.09198702850501	0.7408540137501374	5.940528216527492	51.12720631809549	134.2238693008976	0	0	19.15261143076457	-6.033566393368475	1.012428765064916	45.71377444324217	131.6469695468816	0	0
0.16	-5.849558256959659	-1.465770892841349	20.77032872661724	0	0.9399999999999999	0	43.07917059533261	-11.75250163453809	-11.20568599618195	53.99519214215858	0.9423938831276373	0	0	0	43.07917059533261	-11.75250163453809	-11.20568599618195	53.99519214215858	0.9423938831276373	0	0	0	-2.43174446756027	-1.608904034594519	1.025142129843137	16.23919383779312	0.7676763811859015	5.47749394270851	51.06469395320575	134.5584934728848	0	0	19.15991329688466	-6.001558666338078	1.043515993103384	45.72455071643996	131.6374692040767	0	0
0.18	-5.850009974267786	-1.465222859341308	20.73537757780482	0	0.9399999999999999	0	43.08005727002884	-11.74966726976851	-11.20443757056274	53.99550203066624	0.9423992917024101	0	0	0	43.08005727002884	-11.74966726976851	-11.20443757056274	53.99550203066624	0.9423992917024101	0	0	0	-2.432327916273961	-1.609157567276522	1.058010166021556	16.30234235263789	0.783610801984107	5.157412920609508	51.00280442135571	134.8500905388467	0	0	19.14096330192476	-5.998725310418415	1.0574627536969	45.72845173818502	131.6168987950761	0	0
0.2	-5.853842299560204	-1.459291624865969	20.69704632721253	0	0.9399999999999999	0	43.08043287391767	-11.74847272836039	-11.20391044247277	53.99563385526972	0.9424015924757759	0	0	0	43.08043287391767	-11.74847272836039	-11.20391044247277	53.99563385526972	0.9424015924757759	0	0	0	-2.433663464562767	-1.603329730970994	1.084963536055702	16.33883248696453	0.7532082637905024	4.852623033789696	50.99350128897134	134.9327269040336	0	0	19.13952547118815	-5.969495540415141	1.037642570583012	45.73116081722974	131.6149819079077	0	0
0.22	-5.86160281891261	-1.461362797059232	20.64016719180613	0	0.9399999999999999	0	43.08064948183084	-11.74778870978789	-11.20360785103892	53.99571035938704	0.9424029277245145	0	0	0	43.08064948183084	-11.74778870978789	-11.20360785103892	53.99571035938704	0.9424029277245145	0	0	0	-2.441639357929972	-1.60301221522787	1.098032695064987	16.3547829496392	0.727023110157772	4.587242595374612	50.98088547563702	134.877213782141	0	0	19.14389623793204	-5.973505151984119	0.9725267592061506	45.73127494917372	131.6138050404277	0	0
0.24	-5.869871084516417	-1.470777756286421	20.60396624491049	0	0.9399999999999999	0	43.08118772624731	-11.74607432208121	-11.20285159511465	53.99589885106932	0.942406217524983	0	0	0	43.08118772624731	-11.74607432208121	-11.20285159511465	53.99589885106932	0.942406217524983	0	0	0	-2.452376587970932	-1.610654449079198	1.140423352797186	16.40691408766353	0.6212712416250371	4.284507243004612	50.98171987628257	134.4670836270787	0	0	19.15581651173393	-5.962381789046092	1.004493901318176	45.76356928533607	131.611710831919	0	0
0.26	-5.885261846252683	-1.475510381638956	20.53107754644462	0	0.9399999999999999	0	43.08177596442073	-11.74424184299223	-11.20203700064387	53.99610900546718	0.9424098854111632	0	0	0	43.08177596442073	-11.74424184299223	-11.20203700064387	53.99610900546718	0.9424098854111632	0	0	0	-2.468794098817126	-1.60995524295205	1.158203677334095	16.44858801150201	0.6390395656939866	4.360969090854956	51.02088276051232	133.7227938424884	0	0	19.1826434515276	-5.978451492276546	0.9507187434018233	45.78143115376272	131.5747920563337	0	0
0.28	-5.910984299666296	-1.465411738791512	20.42098729120335	0	0.9399999999999999	0	43.08274519792717	-11.7411998666401	-11.20068803105191	53.99645271120428	0.9424158842079337	0	0	0	43.08274519792717	-11.7411998666401	-11.20068803105191	53.99645271120428	0.9424158842079337	0	0	0	-2.489447414515501	-1.59312211037183	1.214628888944329	16.46842873997853	0.6490931734337646	4.49561606816585	51.29771850415366	131.7691745618914	0	0	19.2309234766832	-5.931620102095835	0.8662272146175581	45.79061864773472	131.5717923823661	0	0
0.3	-5.93095435528014	-1.480084702766449	20.27570368396936	0	0.9399999999999999	0	43.08323459780658	-11.739648367815	-11.20000224242615	53.99662449557962	0.9424188824108867	0	0	0	43.08323459780658	-11.739648367815	-11.20000224242615	53.99662449557962	0.9424188824108867	0	0	0	-2.511626825632465	-1.604112792034735	1.29940448481272	17.05068163797152	0.005927289461895606	3.864978329057168	51.09796977198492	131.6292503956526	0	0	19.26764695562685	-5.953974239312838	0.8240412009519081	45.8245903074985	131.5755234028151	0	0
0.32	-5.946513624804004	-1.488952167534398	20.22623702002073	0	0.9399999999999999	0	43.0835523840075	-11.73864556236244	-11.1995582572126	53.99673648633632	0.9424208370183229	0	0	0	43.0835523840075	-11.73864556236244	-11.1995582572126	53.99673648633632	0.9424208370183229	0	0	0	-2.529470751966798	-1.607261587753459	1.308219472301928	17.14001189427887	-0.2075945912278722	3.770594083751013	51.09758619144463	131.5676820817473	0	0	19.31095162538048	-5.9518921351417	0.7886178024293498	45.82878749162937	131.5669701776789	0	0
0.34	-5.98781781635524	-1.506644496739725	20.17834785188992	0	0.9399999999999999	0	43.08709581921229	-11.72844880222866	-11.19486984015719	53.99800218573091	0.942442927640099	0	0	0	43.08709581921229	-11.72844880222866	-11.19486984015719	53.99800218573091	0.942442927640099	0	0	0	-2.579509453267615	-1.605732890001576	1.295016241073729	17.23032815701157	-0.2045581640884753	3.822355561472395	51.12925850554503	131.5238286940736	0	0	19.4113635220347	-5.943461136712734	0.7357163128293596	45.85572540001837	131.5531252312272	0	0
0.36	-5.999128348109926	-1.507633704465248	19.90823664421328	0	0.9399999999999999	0	43.09001938078621	-11.71929909797242	-11.19080100640419	53.99903206344963	0.9424609023971836	0	0	0	43.09001938078621	-11.71929909797242	-11.19080100640419	53.99903206344963	0.9424609023971836	0	0	0	-2.58753542457325	-1.613210911810398	1.558738180485692	17.09363471503202	-0.2932331311812139	3.94947399113472	52.47291351291877	126.0520336180215	0	0	19.47562420215043	-5.889991033827148	0.6675123149293923	45.80498120673452	131.610820283952	0	0
0.3800000000000001	-6.03671753413389	-1.536289365340406	19.90990969652248	0	0.9399999999999999	0	43.09196343964065	-11.71403325541823	-11.18832013075979	53.99973539382477	0.942473177827959	0	0	0	43.09196343964065	-11.71403325541823	-11.18832013075979	53.99973539382477	0.942473177827959	0	0	0	-2.636033323274694	-1.624097829101183	1.52774046354504	17.16488714680968	-0.2620560863597004	3.959208982117183	52.50917413596889	126.0572230440962	0	0	19.59308027863958	-5.886521116089711	0.5544401789673049	45.81999041834506	131.6459939484747	0	0
0.4000000000000001	-6.16421918912943	-1.622996369539532	19.49751581139021	0	0.9399999999999999	0	43.09314553076705	-11.71033810688444	-11.18667600174587	54.00015191546397	0.9424804475019688	0	0	0	43.09314553076705	-11.71033810688444	-11.18667600174587	54.00015191546397	0.9424804475019688	0	0	0	-2.788789579607997	-1.673833872699201	1.820107642944808	17.17323320714572	-0.6422882247041848	3.769674357748405	54.02383596933864	121.1088960646841	0	0	19.91782547723691	-5.991280608024733	0.4597628319459858	45.84805714794836	131.5976288230445	0	0
